<?xml version="1.0" standalone="no"?>
<!DOCTYPE svg PUBLIC "-//W3C//DTD SVG 20010904//EN"
 "http://www.w3.org/TR/2001/REC-SVG-20010904/DTD/svg10.dtd">
<svg version="1.0" xmlns="http://www.w3.org/2000/svg"
 width="1280.000000pt" height="1266.000000pt" viewBox="0 0 1280.000000 1266.000000"
 preserveAspectRatio="xMidYMid meet">
<g transform="translate(0.000000,1266.000000) scale(0.100000,-0.100000)"
fill="#000000" stroke="none">
<path d="M6200 12642 c0 -12 11 -21 32 -27 50 -15 58 -42 58 -195 0 -255 -25
-392 -80 -445 -16 -15 -27 -32 -24 -37 6 -9 237 -11 247 -1 4 3 -8 21 -27 39
-55 54 -70 131 -71 363 0 131 4 195 11 198 6 2 113 -141 238 -317 125 -176
234 -320 242 -320 12 0 14 34 14 199 0 331 22 466 84 506 14 10 26 26 26 36 0
18 -9 19 -130 19 -147 0 -153 -4 -96 -62 19 -20 40 -54 46 -77 26 -98 41 -369
21 -400 -10 -15 -29 9 -261 337 l-143 202 -94 0 c-83 0 -93 -2 -93 -18z"/>
<path d="M6540 11524 c0 -7 -25 -130 -220 -1064 -83 -399 -178 -853 -210
-1010 -145 -699 -360 -1737 -365 -1757 -3 -13 -11 -23 -19 -23 -7 0 -330 208
-717 462 -387 254 -713 462 -724 462 -11 1 -19 -4 -18 -10 1 -5 189 -296 419
-645 538 -819 519 -788 507 -800 -5 -5 -432 -97 -949 -204 -516 -108 -1144
-238 -1394 -290 -250 -52 -684 -142 -965 -200 -280 -58 -518 -108 -527 -111
-11 -3 -18 -15 -18 -29 0 -14 7 -26 18 -29 9 -3 267 -57 572 -120 2401 -498
3255 -677 3263 -685 6 -6 -158 -265 -458 -723 -258 -392 -470 -721 -473 -732
-4 -15 -1 -18 15 -14 11 3 334 211 719 464 384 252 708 458 718 458 22 1 -7
132 326 -1469 101 -484 253 -1217 339 -1630 l156 -750 27 -3 c24 -3 27 1 38
50 14 67 315 1516 610 2933 72 347 142 683 155 748 14 64 25 120 25 123 0 22
122 -53 748 -464 387 -254 707 -462 712 -462 5 0 11 4 14 9 4 5 -206 332 -465
727 -409 622 -469 719 -455 729 9 7 84 26 168 43 84 17 434 89 778 161 344 71
1114 231 1711 355 597 124 1109 231 1137 237 45 9 52 14 52 34 0 13 -3 26 -7
28 -5 3 -282 62 -618 132 -335 69 -1064 221 -1620 336 -555 116 -1144 238
-1307 271 -163 34 -299 66 -301 73 -3 6 208 335 468 730 332 505 470 724 463
732 -11 13 50 52 -833 -527 -330 -216 -607 -395 -616 -397 -21 -6 -15 -29 -93
347 -36 173 -124 599 -196 945 -72 347 -189 911 -261 1255 -71 344 -161 775
-199 959 -39 183 -70 337 -70 342 0 5 -13 9 -30 9 -16 0 -30 -3 -30 -6z m-8
-5126 c-4 -4 -193 178 -420 405 l-413 413 81 390 c45 214 128 614 185 889 57
275 174 838 260 1250 86 413 185 892 221 1065 36 173 70 326 77 340 9 20 13
-483 15 -2359 1 -1312 -1 -2388 -6 -2393z m2158 2050 c0 -16 -1171 -1188
-1187 -1188 -6 0 -14 3 -16 8 -11 16 -76 343 -72 354 6 15 1255 838 1272 838
1 0 3 -6 3 -12z m-3668 -615 c327 -327 587 -594 586 -602 -2 -10 -50 -24 -163
-48 -88 -18 -171 -33 -185 -33 -22 0 -52 41 -237 323 -116 177 -301 460 -412
628 -111 168 -201 309 -201 313 0 3 5 6 11 6 7 0 277 -264 601 -587z m3280
-837 c769 -160 1552 -323 2602 -541 280 -58 513 -108 518 -111 6 -4 5 -10 -3
-15 -22 -14 -4756 -11 -4765 2 -10 17 805 829 833 829 13 0 379 -74 815 -164z
m-1826 -727 c8 -14 -804 -829 -825 -829 -8 0 -341 68 -741 151 -399 83 -1179
245 -1735 360 -555 115 -1098 228 -1205 250 -256 53 -277 58 -259 70 22 14
4756 12 4765 -2z m557 -476 c218 -219 397 -404 397 -411 0 -6 -92 -456 -205
-999 -113 -544 -242 -1163 -287 -1378 -287 -1381 -325 -1559 -336 -1563 -9 -3
-12 537 -12 2376 0 1308 3 2382 6 2385 4 3 14 2 23 -3 9 -5 195 -188 414 -407z
m915 -420 c103 -154 751 -1142 762 -1164 7 -11 9 -24 5 -27 -8 -8 -1196 1180
-1192 1193 3 8 310 81 354 84 7 1 39 -38 71 -86z m-2298 -38 c0 -2 16 -79 35
-171 19 -91 35 -172 35 -179 0 -11 -1180 -793 -1257 -834 -18 -9 -23 -9 -23 1
-1 19 1175 1188 1194 1188 9 0 16 -2 16 -5z"/>
<path d="M0 6663 c0 -10 14 -24 32 -33 43 -20 61 -60 159 -346 44 -131 90
-265 101 -297 17 -48 24 -58 41 -55 17 2 37 45 111 227 50 124 96 226 103 228
7 3 40 -84 88 -226 69 -207 79 -231 98 -231 19 0 36 37 142 301 126 315 159
382 201 401 14 7 23 18 22 27 -5 23 -253 24 -253 1 0 -8 11 -16 25 -18 48 -7
63 -31 57 -92 -8 -71 -139 -435 -157 -435 -9 0 -43 87 -97 250 -72 215 -82
253 -71 273 19 36 0 43 -98 40 -73 -2 -89 -6 -92 -19 -2 -11 6 -19 23 -23 14
-4 35 -21 46 -39 33 -53 22 -142 -40 -322 -53 -154 -64 -176 -80 -159 -5 5
-43 116 -85 247 -52 161 -76 250 -74 275 l3 37 -102 3 c-93 2 -103 1 -103 -15z"/>
<path d="M12347 6670 c-114 -29 -227 -125 -280 -237 -29 -63 -32 -76 -32 -168
0 -118 21 -171 93 -243 67 -67 136 -94 240 -95 198 -1 343 109 408 307 30 92
29 129 -6 221 -29 74 -103 155 -174 190 -59 29 -184 41 -249 25z m117 -70
c131 -49 226 -203 226 -365 0 -99 -70 -208 -156 -241 -56 -21 -153 -15 -210
14 -78 40 -152 141 -180 247 -65 241 106 425 320 345z"/>
<path d="M6563 760 c-77 -16 -149 -65 -179 -122 -22 -42 -18 -119 9 -158 12
-18 74 -69 137 -114 132 -93 169 -142 156 -208 -15 -79 -88 -123 -165 -100
-51 16 -108 79 -116 129 -10 58 -13 63 -35 63 -19 0 -20 -6 -20 -104 l0 -103
79 -23 c51 -14 92 -20 113 -16 58 11 152 62 186 101 41 47 52 74 52 133 0 79
-15 96 -214 237 -71 51 -98 87 -104 141 -4 38 -1 47 26 74 25 25 38 30 77 30
42 0 52 -5 86 -38 27 -28 40 -51 45 -80 6 -36 10 -42 30 -42 23 0 24 2 24 89
l0 88 -42 11 c-70 18 -101 20 -145 12z"/>
</g>
</svg>
